<?xml version="1.0" standalone="no"?>
<!DOCTYPE svg PUBLIC "-//W3C//DTD SVG 20010904//EN"
 "http://www.w3.org/TR/2001/REC-SVG-20010904/DTD/svg10.dtd">
<svg version="1.0" xmlns="http://www.w3.org/2000/svg"
 width="700.000000pt" height="700.000000pt" viewBox="0 0 700.000000 700.000000"
 preserveAspectRatio="xMidYMid meet">
<metadata>
Created by potrace 1.11, written by Peter Selinger 2001-2013
</metadata>
<g transform="translate(0.000000,700.000000) scale(0.100000,-0.100000)"
fill="#000000" stroke="none">
<path d="M3279 6645 c-3 -2 -36 -7 -74 -10 -82 -6 -112 -10 -240 -30 -203 -31
-533 -130 -730 -220 -143 -65 -278 -134 -350 -179 -175 -109 -348 -236 -459
-334 -72 -65 -270 -265 -316 -321 -25 -29 -50 -59 -55 -65 -22 -23 -104 -135
-160 -216 -122 -177 -245 -408 -318 -595 -19 -49 -38 -99 -42 -110 -5 -11 -9
-22 -10 -25 -1 -3 -15 -50 -32 -105 -27 -86 -36 -118 -49 -170 -40 -169 -39
-163 -48 -226 -4 -25 -9 -59 -12 -75 -19 -104 -28 -249 -29 -459 0 -214 5
-291 30 -473 55 -391 217 -838 425 -1169 33 -52 60 -97 60 -99 0 -10 174 -239
236 -311 78 -91 256 -269 333 -333 29 -25 63 -53 75 -64 11 -10 37 -30 56 -45
19 -14 37 -29 40 -32 11 -12 199 -138 280 -186 108 -64 299 -160 415 -208 186
-77 499 -166 660 -189 22 -4 51 -8 65 -11 14 -3 43 -7 65 -10 22 -2 74 -7 115
-12 85 -9 499 -10 575 -1 28 4 77 9 110 13 53 6 214 34 285 49 14 3 34 8 45
10 233 48 599 193 847 337 115 67 334 212 358 239 3 3 46 39 95 80 157 130
349 330 474 493 239 312 415 660 525 1037 20 69 38 134 40 145 3 11 11 54 20
95 24 116 41 230 54 355 9 96 9 482 -1 580 -33 316 -101 597 -215 880 -38 95
-123 276 -160 340 -9 17 -33 57 -51 90 -160 281 -464 631 -736 849 -182 145
-418 295 -620 391 -210 99 -517 203 -710 240 -121 22 -205 36 -258 41 -34 3
-73 8 -87 11 -30 6 -516 14 -521 8z"/>
</g>
</svg>
