<svg width="150px" height="150px" xmlns="http://www.w3.org/2000/svg" viewBox="0 0 300 300"><path fill="none" d="M-1-1h302v302H-1z"/><g><circle stroke="#fff" cy="150" cx="150" stroke-width="10" fill="#add9e6" r="130"/><g stroke="none"><path fill="#adaca7" d="M159.64 204.258l-29.965 10.674-1.136 3.967c-1.613 5.646-7.742 10.264-13.618 10.264v2.669h62.145l-17.425-27.574z"/><path fill="#8f8f8b" d="M171.46 218.899l-4.187-14.641L150 193.584l-17.273 10.674-3.052 10.674h29.966l1.136 3.967c1.613 5.646 7.742 10.264 13.618 10.264l5.342 2.669 5.342-2.669c-5.876 0-12.005-4.618-13.618-10.264z"/><path fill="#adaca7" d="M217.132 204.258h10.684c5.876 0 10.684-4.803 10.684-10.674v-21.347l-21.368-21.348v53.369z"/><path fill="#cbc9c2" d="M61.5 193.584c0 5.87 4.808 10.674 10.684 10.674h144.948c5.876 0 10.684-4.803 10.684-10.674v-64.042L61.5 172.237v21.347z"/><path fill="#404242" d="M227.816 65.5h-10.684l10.684 106.737H238.5V76.174c0-5.87-4.808-10.674-10.684-10.674z"/><path fill="#565959" d="M227.816 76.174c0-5.87-4.808-10.674-10.684-10.674H72.184c-5.876 0-10.684 4.803-10.684 10.674v96.063h166.316v-10.674L150 118.863l77.816-42.69z"/><path fill="#87aab5" d="M227.816 76.172l-10.682-.008c0 .002-67.134 42.7-67.134 42.7l67.132 42.7 10.684-.008V76.172z"/><path fill="#add9e6" d="M217.132 76.172l-144.917-.008c-.008.004-.016 85.397-.03 85.4l144.943-.008c.002 0-.011-85.383.004-85.384z"/><circle r="3.797" fill="#fff" cy="188.247" cx="150"/><path fill="#8f8f8b" d="M205.201 234.5H94.8a2.67 2.67 0 110-5.337H205.2a2.67 2.67 0 110 5.337z"/></g></g></svg>
